<svg xmlns="http://www.w3.org/2000/svg" data-name="Layer 2" viewBox="0 0 100 125" x="0px" y="0px"><title>WEATHER(OUTLINE)</title><path fill="#fff" d="M82.22,52.32a17.2,17.2,0,0,0-17-14.63,17,17,0,0,0-3.75.42A14.63,14.63,0,0,0,45,34.2a16,16,0,0,0-12.76-6.28A16.14,16.14,0,0,0,16.17,44a15.93,15.93,0,0,0,.29,3,9,9,0,0,0,3,17.42H25.6a11.56,11.56,0,0,0,10.83,7.62h43a10.08,10.08,0,0,0,2.8-19.76ZM14.5,55.49a5,5,0,0,1,4.58-5,2,2,0,0,0,1.74-2.63A12.11,12.11,0,0,1,42.65,37.77a2,2,0,0,0,2.68.71,10.67,10.67,0,0,1,12,1.14l-.07,0q-.47.25-.93.53l-.32.2-.66.44-.33.24-.63.49-.29.24c-.29.25-.58.51-.86.78a14.63,14.63,0,0,0-14.31,6.74,11.3,11.3,0,0,0-2.52-.28,11.59,11.59,0,0,0-1.17.06l-.39.06c-.25,0-.5.06-.75.11l-.41.11c-.23.06-.46.11-.69.18l-.41.15c-.22.08-.43.15-.64.24l-.41.2c-.2.09-.4.18-.59.29l-.39.24c-.19.11-.37.22-.55.34l-.37.28c-.17.13-.35.25-.51.38l-.34.31c-.16.14-.32.28-.47.43s-.21.23-.31.34-.29.31-.43.47-.19.25-.28.37-.26.33-.38.51-.17.27-.25.4-.23.36-.33.54-.14.29-.21.43-.19.37-.27.57-.12.31-.17.46-.15.39-.22.59-.09.33-.13.49-.11.4-.16.61-.06.35-.08.52-.07.41-.09.62,0,.37,0,.55,0,.37,0,.56H19.47A5,5,0,0,1,14.5,55.49Zm64.92,12.6h-43a7.54,7.54,0,0,1-7.37-6,7.62,7.62,0,0,1-.15-1.49,7.53,7.53,0,0,1,7.52-7.52,7.39,7.39,0,0,1,2.74.53,2,2,0,0,0,2.54-1,10.74,10.74,0,0,1,9.73-6.11,11.37,11.37,0,0,1,2.16.22,2,2,0,0,0,1.86-.62q.3-.33.62-.64a13.2,13.2,0,0,1,5.29-3.14,12.83,12.83,0,0,1,3.87-.59A13.2,13.2,0,0,1,78.39,54.11,2,2,0,0,0,80.15,56a6.08,6.08,0,0,1-.73,12.11Z"/></svg>