<svg xmlns="http://www.w3.org/2000/svg" data-name="Layer 2" viewBox="0 0 100 125" x="0px" y="0px"><title>WEATHER(OUTLINE)</title><path fill="#fff" d="M82.29,41.51a14.71,14.71,0,0,0,.1-1.66A15.47,15.47,0,0,0,66.93,24.39a15.26,15.26,0,0,0-5.16.9A24.26,24.26,0,0,0,21.49,38.91,13.66,13.66,0,1,0,32.06,63.45a24.12,24.12,0,0,0,24.45,1.28A13.73,13.73,0,0,0,76.4,60.95a10.16,10.16,0,0,0,5.9-19.44Zm-3,15.88a6.08,6.08,0,0,1-2.92-.73,2,2,0,0,0-2.78,1,9.73,9.73,0,0,1-15.55,3.24,2,2,0,0,0-2.38-.25,20.14,20.14,0,0,1-22.52-1.24,2,2,0,0,0-2.55.11,9.66,9.66,0,1,1-7.24-16.79,2,2,0,0,0,1.83-1.77A20.25,20.25,0,0,1,59.88,29a2,2,0,0,0,2.27.42A11.41,11.41,0,0,1,78,42.61a2,2,0,0,0,1.79,2.48,6.16,6.16,0,0,1-.48,12.29Z"/><path fill="#fff" d="M31,70a2,2,0,0,0-2.78.55l-5,7.45a2,2,0,0,0,3.32,2.23l5-7.45A2,2,0,0,0,31,70Z"/><path fill="#fff" d="M42.3,70a2,2,0,0,0-2.78.55l-5,7.45a2,2,0,0,0,3.32,2.23l5-7.45A2,2,0,0,0,42.3,70Z"/><path fill="#fff" d="M53.61,70a2,2,0,0,0-2.78.55l-5,7.45a2,2,0,0,0,3.32,2.23l5-7.45A2,2,0,0,0,53.61,70Z"/><path fill="#fff" d="M64.93,70a2,2,0,0,0-2.78.55l-5,7.45a2,2,0,0,0,3.32,2.23l5-7.45A2,2,0,0,0,64.93,70Z"/><path fill="#fff" d="M76.24,70a2,2,0,0,0-2.78.55l-5,7.45a2,2,0,0,0,3.32,2.23l5-7.45A2,2,0,0,0,76.24,70Z"/></svg>