<svg xmlns="http://www.w3.org/2000/svg" data-name="Layer 2" viewBox="0 0 100 125" x="0px" y="0px"><title>WEATHER(OUTLINE)</title><path fill="#fff" d="M82.22,40.63A17.2,17.2,0,0,0,65.24,26a17,17,0,0,0-3.75.42A14.63,14.63,0,0,0,45,22.51a16,16,0,0,0-12.76-6.28A16.14,16.14,0,0,0,16.17,32.35a15.86,15.86,0,0,0,.29,3,9,9,0,0,0,3,17.41H25.6a11.56,11.56,0,0,0,10.84,7.62h43a10.08,10.08,0,0,0,2.8-19.76ZM14.5,43.79a5,5,0,0,1,4.58-5,2,2,0,0,0,1.74-2.63A12.11,12.11,0,0,1,42.65,26.08a2,2,0,0,0,2.68.72,10.67,10.67,0,0,1,12,1.14l-.08,0q-.47.25-.91.52l-.32.21-.66.44-.34.24-.63.49-.28.23c-.3.25-.58.51-.86.78a14.89,14.89,0,0,0-1.82-.11A14.68,14.68,0,0,0,39,37.64a11.27,11.27,0,0,0-2.52-.28,11.61,11.61,0,0,0-1.17.06l-.41.06c-.24,0-.49.06-.73.11l-.45.11c-.22.05-.44.1-.65.17l-.45.16c-.2.07-.41.14-.6.22l-.45.22c-.19.09-.37.17-.55.27l-.44.27c-.17.1-.34.2-.5.31s-.28.21-.42.31-.31.22-.46.35-.26.23-.39.35-.29.25-.43.39-.24.26-.36.39-.26.28-.38.42-.22.29-.33.43-.23.3-.34.45-.19.31-.29.46-.2.32-.29.48-.16.33-.24.49-.17.33-.25.51-.13.35-.2.53-.14.35-.19.53-.1.37-.15.55-.1.36-.14.55-.06.39-.09.58-.07.37-.09.56,0,.4,0,.61,0,.34,0,.51H19.47A5,5,0,0,1,14.5,43.79Zm64.92,12.6h-43a7.54,7.54,0,0,1-7.37-6,7.62,7.62,0,0,1-.15-1.49,7.53,7.53,0,0,1,7.52-7.52,7.4,7.4,0,0,1,2.74.53,2,2,0,0,0,2.54-1,10.73,10.73,0,0,1,9.73-6.11A11.36,11.36,0,0,1,53.6,35a2,2,0,0,0,1.86-.62,13.23,13.23,0,0,1,5.91-3.78A12.83,12.83,0,0,1,65.24,30,13.2,13.2,0,0,1,78.39,42.41a2,2,0,0,0,1.76,1.87,6.08,6.08,0,0,1-.73,12.11Z"/><path fill="#fff" d="M36,68a5.33,5.33,0,1,0-5.33,5.33A5.34,5.34,0,0,0,36,68Zm-5.33,1.33A1.33,1.33,0,1,1,32,68,1.33,1.33,0,0,1,30.63,69.32Z"/><path fill="#fff" d="M54.4,68a5.33,5.33,0,1,0-5.33,5.33A5.34,5.34,0,0,0,54.4,68Zm-5.33,1.33A1.33,1.33,0,1,1,50.4,68,1.33,1.33,0,0,1,49.07,69.32Z"/><path fill="#fff" d="M72.85,68a5.33,5.33,0,1,0-5.33,5.33A5.34,5.34,0,0,0,72.85,68Zm-5.33,1.33A1.33,1.33,0,1,1,68.85,68,1.33,1.33,0,0,1,67.52,69.32Z"/><path fill="#fff" d="M38.48,73.11a5.33,5.33,0,1,0,5.33,5.33A5.34,5.34,0,0,0,38.48,73.11Zm0,6.66a1.33,1.33,0,1,1,1.33-1.33A1.33,1.33,0,0,1,38.48,79.78Z"/><path fill="#fff" d="M56.93,73.11a5.33,5.33,0,1,0,5.33,5.33A5.34,5.34,0,0,0,56.93,73.11Zm0,6.66a1.33,1.33,0,1,1,1.33-1.33A1.33,1.33,0,0,1,56.93,79.78Z"/><path fill="#fff" d="M75.37,73.11a5.33,5.33,0,1,0,5.33,5.33A5.34,5.34,0,0,0,75.37,73.11Zm0,6.66a1.33,1.33,0,1,1,1.33-1.33A1.33,1.33,0,0,1,75.37,79.78Z"/></svg>