<svg xmlns="http://www.w3.org/2000/svg" data-name="Layer 2" viewBox="0 0 100 125" x="0px" y="0px"><title>WEATHER(OUTLINE)</title><path fill="#fff" d="M50,24.75A25.25,25.25,0,1,0,75.25,50,25.28,25.28,0,0,0,50,24.75Zm0,46.5A21.25,21.25,0,1,1,71.25,50,21.27,21.27,0,0,1,50,71.25Z"/><path fill="#fff" d="M50,23a2,2,0,0,0,2-2V12.5a2,2,0,0,0-4,0V21A2,2,0,0,0,50,23Z"/><path fill="#fff" d="M28.08,30.91a2,2,0,0,0,2.83-2.83l-6-6a2,2,0,0,0-2.83,2.83Z"/><path fill="#fff" d="M23,50a2,2,0,0,0-2-2H12.5a2,2,0,0,0,0,4H21A2,2,0,0,0,23,50Z"/><path fill="#fff" d="M28.08,69.09l-6,6a2,2,0,1,0,2.83,2.83l6-6a2,2,0,0,0-2.83-2.83Z"/><path fill="#fff" d="M50,77a2,2,0,0,0-2,2v8.5a2,2,0,0,0,4,0V79A2,2,0,0,0,50,77Z"/><path fill="#fff" d="M71.92,69.09a2,2,0,0,0-2.83,2.83l6,6a2,2,0,0,0,2.83-2.83Z"/><path fill="#fff" d="M87.5,48H79a2,2,0,0,0,0,4h8.5a2,2,0,0,0,0-4Z"/><path fill="#fff" d="M70.51,31.49a2,2,0,0,0,1.41-.59l6-6a2,2,0,0,0-2.83-2.83l-6,6a2,2,0,0,0,1.41,3.41Z"/></svg>