<svg xmlns="http://www.w3.org/2000/svg" data-name="Layer 2" viewBox="0 0 100 125" x="0px" y="0px"><title>WEATHER(OUTLINE)</title><path fill="#fff" d="M76.75,58.32a18.59,18.59,0,0,0,2.46-9.27,18.79,18.79,0,0,0-36.1-7.29,17.63,17.63,0,0,0-8.46-2.15A17.83,17.83,0,0,0,16.84,57.42a17.4,17.4,0,0,0,.36,3.52A9.8,9.8,0,0,0,20.3,80H71.48a11.49,11.49,0,0,0,5.26-21.71ZM60.41,34.27a14.81,14.81,0,0,1,14.8,14.79,14.63,14.63,0,0,1-2.4,8.07h-.13a11.06,11.06,0,0,0-2.09,0A16.15,16.15,0,0,0,55,45.47a16.34,16.34,0,0,0-6.2,1.23c-.31-.41-.65-.81-1-1.19l-.3-.32q-.44-.47-.91-.9l-.16-.16A14.79,14.79,0,0,1,60.41,34.27ZM71.48,76H20.3a5.8,5.8,0,0,1-.46-11.58,2,2,0,0,0,1.73-2.64,13.52,13.52,0,0,1-.74-4.39A13.82,13.82,0,0,1,34.64,43.61,13.68,13.68,0,0,1,43,46.39a14,14,0,0,1,3.49,3.88,2,2,0,0,0,2.68.72A12.31,12.31,0,0,1,55,49.47,12.17,12.17,0,0,1,67.09,59.69a1.95,1.95,0,0,0,1.36,1.57l.15,0a2,2,0,0,0,.38.05h.14a2,2,0,0,0,.47-.06,7.34,7.34,0,0,1,3.65,0A7.49,7.49,0,0,1,71.48,76Z"/><path fill="#fff" d="M60.42,30.11a2,2,0,0,0,2-2V22a2,2,0,0,0-4,0v6.14A2,2,0,0,0,60.42,30.11Z"/><path fill="#fff" d="M44.19,35.66A2,2,0,0,0,47,32.83l-4.34-4.34a2,2,0,0,0-2.83,2.83Z"/><path fill="#fff" d="M87.5,47.05H81.36a2,2,0,0,0,0,4H87.5a2,2,0,0,0,0-4Z"/><path fill="#fff" d="M75.23,36.24a2,2,0,0,0,1.41-.59L81,31.32a2,2,0,0,0-2.83-2.83l-4.34,4.34a2,2,0,0,0,1.41,3.41Z"/></svg>