<svg xmlns="http://www.w3.org/2000/svg" data-name="Layer 2" viewBox="0 0 100 125" x="0px" y="0px"><title>WEATHER(OUTLINE)</title><path fill="#fff" d="M82.29,39.46a14.71,14.71,0,0,0,.1-1.66A15.47,15.47,0,0,0,66.93,22.34a15.26,15.26,0,0,0-5.16.9A24.26,24.26,0,0,0,21.49,36.86,13.66,13.66,0,1,0,32.06,61.4a24.12,24.12,0,0,0,24.45,1.28A13.73,13.73,0,0,0,76.4,58.9a10.16,10.16,0,0,0,5.9-19.44Zm-3,15.88a6.08,6.08,0,0,1-2.91-.73,2,2,0,0,0-2.78,1A9.73,9.73,0,0,1,58.09,58.8a2,2,0,0,0-2.38-.25A20.14,20.14,0,0,1,33.19,57.3a2,2,0,0,0-2.55.11,9.66,9.66,0,1,1-7.24-16.79,2,2,0,0,0,1.83-1.77A20.25,20.25,0,0,1,59.88,27a2,2,0,0,0,2.27.42,11.35,11.35,0,0,1,4.78-1.06A11.41,11.41,0,0,1,78,40.57,2,2,0,0,0,79.82,43a6.16,6.16,0,0,1-.48,12.29Z"/><path fill="#fff" d="M30.4,72.64h-3l3-3.15a2,2,0,1,0-2.91-2.75l-6.17,6.52a2,2,0,0,0,1.45,3.37h3.35l-2.71,3.21a2,2,0,0,0,3.05,2.58l5.5-6.5a2,2,0,0,0-1.53-3.29Z"/><path fill="#fff" d="M53.83,72.64h-3l3-3.15a2,2,0,1,0-2.91-2.75l-6.17,6.52a2,2,0,0,0,1.45,3.37h3.35l-2.71,3.21a2,2,0,0,0,3.05,2.58l5.5-6.5a2,2,0,0,0-1.53-3.29Z"/><path fill="#fff" d="M77.27,72.64h-3l3-3.15a2,2,0,1,0-2.91-2.75l-6.17,6.52a2,2,0,0,0,1.45,3.37H73l-2.71,3.21a2,2,0,0,0,3.05,2.58l5.5-6.5a2,2,0,0,0-1.53-3.29Z"/></svg>